<?xml version="1.0" encoding="UTF-8" standalone="no"?>
<!-- Generator: Adobe Illustrator 19.2.0, SVG Export Plug-In . SVG Version: 6.00 Build 0)  -->

<svg
   version="1.1"
   id="Layer_1"
   x="0px"
   y="0px"
   viewBox="0 0 620 620"
   xml:space="preserve"
   sodipodi:docname="Camera_Flat_Icon_Vector.svg"
   width="620"
   height="620"
   inkscape:export-filename="/home/jesse/Documents/Projects/RocketCam/static/favicon.png"
   inkscape:export-xdpi="60.077419"
   inkscape:export-ydpi="60.077419"
   inkscape:version="1.1.1 (3bf5ae0d25, 2021-09-20)"
   xmlns:inkscape="http://www.inkscape.org/namespaces/inkscape"
   xmlns:sodipodi="http://sodipodi.sourceforge.net/DTD/sodipodi-0.dtd"
   xmlns="http://www.w3.org/2000/svg"
   xmlns:svg="http://www.w3.org/2000/svg"><defs
   id="defs1965" /><sodipodi:namedview
   id="namedview1963"
   pagecolor="#ffffff"
   bordercolor="#111111"
   borderopacity="1"
   inkscape:pageshadow="0"
   inkscape:pageopacity="0"
   inkscape:pagecheckerboard="1"
   showgrid="false"
   fit-margin-top="0"
   fit-margin-left="0"
   fit-margin-right="0"
   fit-margin-bottom="0"
   inkscape:zoom="0.8978783"
   inkscape:cx="209.93937"
   inkscape:cy="117.49922"
   inkscape:window-width="3440"
   inkscape:window-height="1404"
   inkscape:window-x="0"
   inkscape:window-y="0"
   inkscape:window-maximized="1"
   inkscape:current-layer="Layer_1" />
<style
   type="text/css"
   id="style1939">
	.st0{fill:#333333;}
	.st1{fill:#0F0F0F;}
	.st2{fill:#AAAAAA;}
	.st3{stroke:#FFFFFF;stroke-width:29.8029;stroke-miterlimit:10;}
	.st4{fill:#FFFFFF;}
	.st5{fill:#CC333F;}
</style>
<g
   id="Layer_1_1_"
   transform="translate(-169.39999,-164.5)">
	<g
   id="g1959">
		<path
   d="m 744.8,338.3 h -81.3 v -41 c 0,-7.1 5.7,-12.8 12.8,-12.8 h 55.8 c 7.1,0 12.8,5.7 12.8,12.8 z"
   id="path1941" />
		<path
   class="st0"
   d="M 761,675.5 H 199 c -14.1,0 -25.5,-11.4 -25.5,-25.5 V 338.8 c 0,-14.1 11.4,-25.5 25.5,-25.5 h 562 c 14.1,0 25.5,11.4 25.5,25.5 V 650 c 0.1,14.1 -11.4,25.5 -25.5,25.5 z"
   id="path1943" />
		<path
   class="st1"
   d="M 761,632.9 H 199 c -14.1,0 -25.5,-11.4 -25.5,-25.5 V 650 c 0,14.1 11.4,25.5 25.5,25.5 h 562 c 14.1,0 25.5,-11.4 25.5,-25.5 v -42.6 c 0.1,14.1 -11.4,25.5 -25.5,25.5 z"
   id="path1945" />
		<rect
   x="173.39999"
   y="398.70001"
   class="st2"
   width="613.09998"
   height="202.10001"
   id="rect1947" />
		<circle
   class="st3"
   cx="480"
   cy="495.29999"
   r="110.2"
   id="circle1949" />
		<circle
   class="st0"
   cx="480"
   cy="495.29999"
   r="63"
   id="circle1951" />
		<circle
   class="st4"
   cx="440.60001"
   cy="455.89999"
   r="23.6"
   id="circle1953" />
		<circle
   class="st5"
   cx="234.3"
   cy="356.5"
   r="18.4"
   id="circle1955" />
		<rect
   x="675.5"
   y="342.79999"
   class="st2"
   width="69.400002"
   height="27.6"
   id="rect1957" />
	</g>
</g>
</svg>
